<svg xmlns="http://www.w3.org/2000/svg" version="1.1" xmlns:xlink="http://www.w3.org/1999/xlink" xmlns:svgjs="http://svgjs.com/svgjs" id="Pattern958SvgRootPreview" width="100%" height="100%"><defs><pattern x="0" y="0" width="1" height="1" patternUnits="userSpaceOnUse" id="Pattern958Layer1"><g id="PatternRootContent1"><g id="Pattern958Layer1background"><rect width="1" height="1" id="Pattern958Background1" class="fill_color_1" fill="#aac8b7"></rect></g></g></pattern><pattern x="0" y="0" width="22" height="34" patternUnits="userSpaceOnUse" id="Pattern958Layer2" patternTransform="matrix(0.7071067811865476,0.7071067811865475,-0.7071067811865475,0.7071067811865476,0,0)"><g id="PatternRootContent2"><g id="Pattern958Layer2Element1"><use xlink:href="#Pattern958Element1" x="10" y="-20.5" transform="translate(19.850000381469727, -10.649999618530273) scale(1) translate(-19.850000381469727, 10.649999618530273) rotate(-90, 22, -8.5)"></use><use xlink:href="#Pattern958Element1" x="-12" y="-20.5" transform="translate(-2.1499996185302734, -10.649999618530273) scale(1) translate(2.1499996185302734, 10.649999618530273) rotate(-90, 0, -8.5)"></use><use xlink:href="#Pattern958Element1" x="-1" y="-3.5" transform="translate(8.850000381469727, 6.350000381469727) scale(1) translate(-8.850000381469727, -6.350000381469727) rotate(90, 11, 8.5)"></use><use xlink:href="#Pattern958Element1" x="-23" y="-3.5" transform="translate(-13.149999618530273, 6.350000381469727) scale(1) translate(13.149999618530273, -6.350000381469727) rotate(90, -11, 8.5)"></use><use xlink:href="#Pattern958Element1" x="21" y="-3.5" transform="translate(30.850000381469727, 6.350000381469727) scale(1) translate(-30.850000381469727, -6.350000381469727) rotate(90, 33, 8.5)"></use><use xlink:href="#Pattern958Element1" x="10" y="13.5" transform="translate(19.850000381469727, 23.350000381469727) scale(1) translate(-19.850000381469727, -23.350000381469727) rotate(-90, 22, 25.5)"></use><use xlink:href="#Pattern958Element1" x="-12" y="13.5" transform="translate(-2.1499996185302734, 23.350000381469727) scale(1) translate(2.1499996185302734, -23.350000381469727) rotate(-90, 0, 25.5)"></use><use xlink:href="#Pattern958Element1" x="-1" y="30.5" transform="translate(8.850000381469727, 40.35000038146973) scale(1) translate(-8.850000381469727, -40.35000038146973) rotate(90, 11, 42.5)"></use><use xlink:href="#Pattern958Element1" x="-1" y="30.5" transform="translate(8.850000381469727, 40.35000038146973) scale(1) translate(-8.850000381469727, -40.35000038146973) rotate(90, 11, 42.5)"></use></g></g></pattern><symbol id="Pattern958Element1"><path d="M3,20.5V3.5C3,2.91 3.34,2.39 3.84,2.15L13.69,12L3.84,21.85C3.34,21.6 3,21.09 3,20.5M16.81,15.12L6.05,21.34L14.54,12.85L16.81,15.12M20.16,10.81C20.5,11.08 20.75,11.5 20.75,12C20.75,12.5 20.53,12.9 20.18,13.18L17.89,14.5L15.39,12L17.89,9.5L20.16,10.81M6.05,2.66L16.81,8.88L14.54,11.15L6.05,2.66Z" class="fill_color_2" fill="#c1d9c9"></path></symbol></defs><rect width="100%" height="100%" id="Pattern958RctLayer1" fill="url(#Pattern958Layer1)"></rect><rect width="100%" height="100%" id="Pattern958RctLayer2" fill="url(#Pattern958Layer2)"></rect></svg>